<svg width="20" height="24" viewBox="0 0 20 24" fill="none" xmlns="http://www.w3.org/2000/svg">
<path fill-rule="evenodd" clip-rule="evenodd" d="M13.167 4.24034C13.998 3.25408 14.4149 2.18854 14.4149 1.04733V1.04731C14.4149 0.895951 14.4079 0.743379 14.391 0.59082C13.8121 0.62085 13.1965 0.796241 12.5458 1.11339C11.8936 1.43534 11.3559 1.83892 10.933 2.32431C10.0861 3.28296 9.60918 4.45542 9.60918 5.55098C9.60918 5.7024 9.6189 5.84649 9.63566 5.9834C10.951 6.09031 12.1641 5.4128 13.167 4.24034ZM17.5912 20.5795C18.0644 19.9048 18.4729 19.171 18.818 18.3737C18.9603 18.0357 19.0941 17.6836 19.2208 17.3159C18.6363 17.0708 18.1109 16.7258 17.6405 16.2793C16.6024 15.3172 16.0743 14.1056 16.0588 12.6496C16.0419 10.7803 16.8911 9.32318 18.6081 8.28284C17.6489 6.91938 16.2066 6.16257 14.2867 6.00763C13.5782 5.94748 12.7134 6.10017 11.6887 6.46892C10.6051 6.86655 9.96595 7.066 9.77735 7.066C9.52509 7.066 8.9497 6.89543 8.05359 6.55907C7.15494 6.22384 6.4318 6.05327 5.88036 6.05327C4.87255 6.07003 3.93672 6.33202 3.07061 6.84613C2.2045 7.36025 1.51249 8.06057 0.992309 8.94837C0.330442 10.0537 0 11.3726 0 12.9019C0 14.2369 0.245085 15.6158 0.733989 17.0399C1.1905 18.3583 1.77321 19.5147 2.48198 20.5119C3.14259 21.4458 3.69403 22.105 4.1349 22.4895C4.82565 23.1318 5.51766 23.4374 6.21193 23.4079C6.66844 23.3924 7.26551 23.236 8.00669 22.936C8.74673 22.6374 9.4386 22.4895 10.0837 22.4895C10.6988 22.4895 11.3715 22.6374 12.1035 22.936C12.8331 23.236 13.4599 23.3839 13.9797 23.3839C14.7037 23.367 15.3798 23.0698 16.0108 22.4895C16.4179 22.1359 16.9461 21.4993 17.5912 20.5795Z" fill="#00D54B"/>
</svg>
