<svg width="64" height="36" viewBox="0 0 64 36" fill="none" xmlns="http://www.w3.org/2000/svg">
<path d="M62.1482 18.7917C61.6113 20.4628 60.5834 21.8838 58.3352 24.3649L57.0029 25.8286C56.489 26.397 56.2191 26.7238 55.9521 27.0847C54.8036 28.6507 50.1321 31.0891 46.4483 32.4476C45.2794 32.8587 44.0766 33.1687 42.8535 33.3741L41.0648 33.6867L36.4708 34.4683C33.8637 34.9344 31.5036 34.8804 27.7624 34.4285L24.1188 33.9681C23.7628 33.9283 23.5158 33.9084 23.1684 33.88H23.0737C21.3251 33.7464 19.9813 33.3372 17.7619 32.3766L16.1454 31.6689C15.4649 31.3847 14.8993 31.1573 14.3509 30.9811L14.0637 30.8959C11.316 30.0717 5.59937 25.8854 3.84218 23.4782L3.62971 23.177C2.71092 21.8355 2.09647 20.9033 1.51074 18.985V18.1892L1.79786 17.2656C2.35488 15.6712 3.32823 14.2871 5.39838 11.9595L7.10676 10.0667C7.54319 9.57507 7.78724 9.27665 8.0313 8.92993C9.17979 7.35829 13.8513 4.90847 17.5322 3.54715C18.5797 3.17611 19.6562 2.89095 20.7508 2.69454L21.7357 2.50981L27.5068 1.53216C30.223 1.04333 32.675 1.12291 36.6948 1.63447L39.8301 2.03519C40.1862 2.07498 40.4331 2.09488 40.7805 2.1233H40.8753C42.5205 2.24834 43.8039 2.62065 45.7994 3.46757L47.8093 4.34291C48.4831 4.63974 49.1733 4.89877 49.8766 5.11878C52.6215 5.94865 58.3381 10.1492 60.0924 12.5649L60.2962 12.8746C61.2122 14.2218 61.6773 15.3074 62.2659 17.24L62.4525 17.8738L62.1482 18.7917Z" fill="white"/>
<path d="M23.0476 2.44225L23.6219 2.17795C26.1905 0.806105 29.0643 0.0902009 31.9829 0.0947481C34.1208 0.0944639 36.2409 0.479557 38.2393 1.23156L38.6068 1.31966C40.7947 1.80564 43.106 3.9741 44.7082 5.29848C45.8394 6.23066 46.919 8.09219 47.6684 9.56151C47.7603 9.73772 47.8522 9.9196 47.9383 10.1015C48.1307 10.4937 48.2915 10.8404 48.4149 11.1047C48.7141 11.784 48.9432 12.4916 49.0983 13.2163C49.3449 14.1636 49.5112 15.1293 49.595 16.1038C49.6602 16.604 49.7242 17.1355 49.7874 17.6982C50.1377 20.8415 48.3259 24.4111 47.8321 25.6701C47.3382 26.9291 45.0786 29.6745 44.7197 30.1804C44.3608 30.6862 40.588 33.1275 40.2405 33.4345C39.8931 33.7414 36.5769 34.8015 36.0457 34.9521C35.5145 35.1027 31.2536 35.4352 30.6449 35.4352C30.0362 35.4352 25.4107 34.0398 25.0087 33.8437C24.6067 33.6476 22.0054 32.2323 21.4771 31.9737C20.9488 31.715 18.6633 29.3732 18.3934 29.0435C18.1235 28.7139 15.792 25.221 15.5796 24.7805C15.3671 24.34 14.7756 22.3733 14.5402 21.8646C14.3048 21.3559 14.1641 18.1188 14.1641 16.9849C14.1767 15.9083 14.3498 14.8397 14.678 13.8132C14.9795 12.8185 15.3441 10.8973 16.6247 8.8169C17.0901 8.08167 17.6072 7.37998 18.1723 6.71665C18.6297 6.14853 19.1215 5.60855 19.6452 5.09954C20.7995 3.92579 22.0341 2.89698 23.0476 2.44225Z" fill="#00D54B"/>
<path d="M40.7861 21.1874L40.6913 21.3977C40.5519 21.72 40.3937 22.0341 40.2176 22.3384C40.0625 22.6226 39.9304 22.9068 39.784 23.1682C39.2701 24.2283 37.866 25.1577 36.9874 25.8113C36.1088 26.465 34.2626 26.86 33.5161 27.0107C32.7696 27.1613 31.5924 27.1101 29.9156 26.9169C28.2388 26.7236 26.5907 25.3708 25.9935 24.9701C25.3963 24.5694 24.2334 23.0915 24.0066 22.8443C23.7798 22.597 22.9701 20.3831 22.8438 20.1784C22.7174 19.9738 22.5566 18.1436 22.5566 17.8537C22.5566 17.5638 22.8753 15.3527 22.9471 15.0401C23.2051 14.461 23.5005 13.899 23.8315 13.3576C23.9032 13.224 23.9808 13.0905 24.0583 12.9597L24.1358 12.8404C24.288 12.5846 24.4057 12.397 24.4459 12.3487L24.5952 12.1782C24.8774 11.8053 25.1885 11.4547 25.5255 11.1295C25.6691 10.9675 25.7868 10.8453 25.8385 10.7685C26.1516 10.5023 26.4889 10.2654 26.8463 10.0609C27.7839 9.43685 28.8275 8.98533 29.9271 8.72796C30.0502 8.6823 30.1758 8.6434 30.3032 8.61143C30.5616 8.56312 31.6527 8.48639 31.9456 8.42955C32.2868 8.42305 32.6278 8.45451 32.962 8.52333C33.3747 8.56115 33.7843 8.62667 34.188 8.71943C35.6539 9.05018 37.0176 9.72579 38.1636 10.689C39.3097 11.6522 40.2043 12.8747 40.7717 14.2528C40.8894 14.4922 40.9854 14.7414 41.0588 14.9974C41.4776 16.3477 41.5759 17.7755 41.346 19.1695C41.346 19.2235 41.3459 19.2804 41.3258 19.3344C41.2323 19.9735 41.0506 20.597 40.7861 21.1874Z" fill="black"/>
<path d="M27.2311 9.754C27.4966 9.86679 27.7442 10.0171 27.9661 10.2002L28.0522 10.2769C28.323 10.519 28.5468 10.8079 28.7126 11.1295C28.7965 11.2708 28.8603 11.4229 28.9021 11.5814V11.6468C29.0387 12.1229 29.0505 12.6256 28.9366 13.1076V13.1076L28.971 12.92C28.9616 12.9985 28.9472 13.0763 28.928 13.1531C28.8447 13.4816 28.7058 13.7939 28.5174 14.0767C28.5067 14.0931 28.4971 14.1102 28.4887 14.1279C28.3279 14.4604 27.8857 14.7503 27.6101 14.9606C27.4621 15.0573 27.3005 15.132 27.1306 15.1823C26.5701 15.4026 25.955 15.4482 25.3676 15.313L25.2815 15.2903L25.382 15.3073C25.2145 15.2843 25.0518 15.2354 24.8996 15.1624C24.3468 14.9368 23.8756 14.5515 23.5473 14.0568C23.5399 14.0455 23.5312 14.035 23.5214 14.0256C23.5023 13.9978 23.486 13.9683 23.4726 13.9375C23.3322 13.7023 23.2259 13.4488 23.1568 13.1843V13.1843C23.1452 13.1551 23.1375 13.1245 23.1338 13.0934C23.0348 12.6622 23.0348 12.2144 23.1338 11.7832L23.1683 11.6496L23.1855 11.5672C23.2053 11.5356 23.2294 11.5069 23.2573 11.482C23.4273 11.0024 23.7197 10.5746 24.1061 10.24C24.4925 9.90533 24.9597 9.67526 25.4624 9.57212L25.5342 9.55222L25.7868 9.52664H25.8615C25.9448 9.52664 26.0165 9.51243 26.051 9.50391C26.1793 9.50457 26.3072 9.5179 26.4329 9.5437C26.5297 9.55542 26.6256 9.57346 26.72 9.59769H26.7659L26.8521 9.61475C26.971 9.64302 27.0866 9.684 27.1966 9.73695L27.2311 9.754Z" fill="white"/>
<path d="M0 18.1895V18.5647C0.470881 20.3921 0.674738 21.3726 1.33799 22.3417C3.60339 25.6584 5.62761 28.0513 7.87291 29.4041L10.7929 31.0639L11.4849 31.4447C13.8106 32.7179 15.7171 33.5762 17.569 34.102C18.1561 34.271 18.7536 34.402 19.3578 34.4942L20.133 34.6164L22.7717 35.0768C27.2623 35.8669 30.0933 36.1454 33.556 35.9294C38.3711 35.6253 42.5832 34.7102 47.7887 33.0874C51.3117 31.9932 56.9163 28.1196 59.5837 25.1894C60.5226 24.1578 61.2806 23.399 61.8807 22.2735L62.2654 21.5602C62.6272 20.8241 63.5288 19.0791 63.4828 19.1871C63.5948 18.9313 63.6781 18.9256 63.77 18.6784L63.9968 18.1867L63.9135 17.8627C63.4398 16.0296 62.9 14.674 62.2367 13.702C59.9742 10.3768 57.95 7.9725 55.7076 6.61401L53.5053 5.35784C53.0086 5.07364 52.5262 4.78944 52.2104 4.62744L52.1013 4.56776C49.7785 3.29169 47.872 2.42772 46.0229 1.90195C45.4305 1.73188 44.8271 1.60179 44.2169 1.51259L43.4417 1.38754L40.8059 0.927134C36.3296 0.134211 33.4986 -0.147149 30.0388 0.0716868C25.2266 0.375783 21.0174 1.29375 15.8118 2.9137C12.2917 4.01641 6.68996 7.90713 4.01972 10.8486C3.02534 11.942 2.19298 13.1697 1.54759 14.4949L1.43274 14.7365C1.05948 15.5493 0.462268 17.0328 0.442169 17.0868C0.330191 17.3369 0.226827 17.5956 0.132076 17.8428L0 18.1895ZM61.9553 18.7921C61.4184 20.4632 60.3905 21.8842 58.1424 24.3653L56.8101 25.8289C56.439 26.2303 56.0892 26.6505 55.7621 27.0879C54.6136 28.6539 49.9393 31.0923 46.2555 32.4508C45.0862 32.8609 43.8835 33.1709 42.6607 33.3773L40.8719 33.6871L36.278 34.4715C33.6738 34.9376 31.3136 34.8836 27.5695 34.4317L23.9346 33.9713C23.5785 33.9286 23.3345 33.9087 22.987 33.8803H22.8894C21.1408 33.7467 19.8 33.3347 17.5805 32.3741L15.964 31.6664C15.2807 31.3822 14.715 31.1577 14.1666 30.9815L13.8939 30.8962C11.149 30.0692 5.42949 25.8829 3.6723 23.4757L3.4627 23.1915C2.54391 21.8472 1.92659 20.9179 1.34086 18.9967V18.1895L1.62799 17.2659C2.14481 15.6658 3.11528 14.2818 5.18544 11.9542L6.89382 10.0642C7.33024 9.57255 7.57717 9.2713 7.82122 8.92741C8.96971 7.35578 13.6383 4.9088 17.3192 3.54463C18.3671 3.17491 19.4435 2.88978 20.5379 2.69203L21.5342 2.52151L27.3054 1.53248C30.0244 1.0465 32.4736 1.12608 36.4933 1.6348L39.6517 2.03552C40.0077 2.07531 40.2517 2.09805 40.5992 2.12362H40.6968C42.3391 2.25151 43.6254 2.62382 45.6209 3.47074L47.6308 4.34608C48.3042 4.64302 48.9945 4.90112 49.6981 5.11911C52.443 5.94898 58.1567 10.1495 59.911 12.568L60.1235 12.8693C61.0423 14.2164 61.5074 15.2992 62.0932 17.2318L62.2798 17.8684L61.9553 18.7921Z" fill="black"/>
</svg>
