<svg width="20" height="22" viewBox="0 0 20 22" fill="none" xmlns="http://www.w3.org/2000/svg">
<path fill-rule="evenodd" clip-rule="evenodd" d="M0.504946 21.3142L9.8176 12.028L13.1002 15.3008L2.0295 21.4388C1.60857 21.6723 1.09301 21.6688 0.674726 21.4291L0.504946 21.3142ZM8.87849 11.0915L0 19.9444V2.23871L8.87849 11.0915ZM14.4267 7.43315L18.7642 9.83759C19.1904 10.0746 19.4548 10.5185 19.4548 10.9996C19.4548 11.4806 19.1904 11.9245 18.7642 12.1615L14.3082 14.6314L10.7576 11.0915L14.4267 7.43315ZM0.406786 0.770748C0.486376 0.693812 0.575686 0.626605 0.674726 0.570009C1.09301 0.330361 1.60857 0.326823 2.0295 0.560282L13.2187 6.76373L9.8176 10.155L0.406786 0.770748Z" fill="#00D54B"/>
</svg>
